<svg width="53" height="53" viewBox="0 0 53 53" fill="none" xmlns="http://www.w3.org/2000/svg">
<g clip-path="url(#clip0_151_307)">
<path d="M30.8619 14.147C24.4372 12.8001 19.4156 7.77847 18.069 1.35367C17.9035 0.564988 17.2079 0 16.4018 0C15.5958 0 14.9001 0.564988 14.7348 1.35378C13.3881 7.77847 8.36644 12.8 1.94174 14.1467C1.15295 14.312 0.58786 15.0077 0.58786 15.8137C0.58786 16.6196 1.15285 17.3154 1.94174 17.4807C8.36633 18.8275 13.3878 23.8491 14.7345 30.2738C14.8998 31.0626 15.5955 31.6276 16.4015 31.6276C17.2075 31.6276 17.9032 31.0627 18.0685 30.2738C19.4154 23.8491 24.4371 18.8275 30.8618 17.481C31.6506 17.3157 32.2157 16.6201 32.2157 15.814C32.2156 15.008 31.6506 14.3123 30.8619 14.147Z" fill="white"/>
<path d="M28.0463 42.2843C25.0193 41.6499 22.6534 39.2839 22.0187 36.2567C21.8534 35.4679 21.1578 34.9028 20.3517 34.9028C19.5457 34.9028 18.85 35.4677 18.6847 36.2566C18.05 39.2837 15.684 41.6497 12.657 42.2842C11.8682 42.4495 11.3031 43.1453 11.3031 43.9512C11.3031 44.7572 11.8681 45.4529 12.657 45.6183C15.6839 46.2528 18.0499 48.6189 18.6845 51.646C18.8498 52.4348 19.5454 52.9998 20.3515 52.9998C21.1574 52.9998 21.8532 52.435 22.0185 51.646C22.6531 48.6189 25.0192 46.2529 28.0463 45.6184C28.8351 45.453 29.4002 44.7573 29.4002 43.9513C29.4002 43.1454 28.8352 42.4497 28.0463 42.2843Z" fill="white"/>
<path d="M51.0584 26.5138C46.9668 25.656 43.7689 22.458 42.9113 18.3666C42.746 17.5778 42.0503 17.0127 41.2443 17.0127C40.4383 17.0127 39.7425 17.5776 39.5772 18.3665C38.7195 22.458 35.5216 25.6559 31.43 26.5136C30.6412 26.6789 30.0762 27.3746 30.0762 28.1806C30.0762 28.9866 30.6411 29.6822 31.43 29.8476C35.5215 30.7053 38.7194 33.9032 39.577 37.9948C39.7423 38.7836 40.438 39.3487 41.244 39.3487C42.05 39.3487 42.7457 38.7838 42.9111 37.9948C43.7689 33.9032 46.9668 30.7053 51.0583 29.8478C51.847 29.6824 52.4121 28.9868 52.4121 28.1808C52.4121 27.3748 51.8472 26.6791 51.0584 26.5138Z" fill="white"/>
</g>
<defs>
<clipPath id="clip0_151_307">
<rect width="53" height="53" fill="white"/>
</clipPath>
</defs>
</svg>
