<svg width="78" height="78" viewBox="0 0 78 78" fill="none" xmlns="http://www.w3.org/2000/svg">
<g clip-path="url(#clip0_146_189)">
<path d="M62.0648 49.0242H57.723C56.291 50.6391 54.6609 52.0406 52.8785 53.2137C48.8871 55.8797 44.1339 57.4031 39 57.4031C33.866 57.4031 29.0976 55.8645 25.1214 53.2137C23.339 52.0406 21.7089 50.6391 20.2769 49.0242H15.9351C12.4769 49.0242 9.64331 51.8578 9.64331 55.316V63.7102C9.64331 67.1684 12.4769 70.002 15.9351 70.002H62.08C65.5382 70.002 68.3718 67.1684 68.3718 63.7102V55.316C68.3718 51.8578 65.5382 49.0242 62.0648 49.0242ZM55.773 63.7102H22.2269C21.0691 63.7102 20.1246 62.7656 20.1246 61.6078C20.1246 60.45 21.0691 59.5055 22.2269 59.5055H55.7882C56.946 59.5055 57.8906 60.45 57.8906 61.6078C57.8753 62.7656 56.9308 63.7102 55.773 63.7102ZM39 11.2734C27.4371 11.2734 18.0222 20.6883 18.0222 32.2512C18.0222 39.1066 21.3433 45.2156 26.4316 49.0242C29.9355 51.6598 34.2773 53.2137 39 53.2137C43.7226 53.2137 48.0644 51.6598 51.5683 49.0242C56.6718 45.2004 59.9777 39.1066 59.9777 32.2512C59.9777 20.6883 50.5628 11.2734 39 11.2734ZM37.9488 30.1488H39.914C42.8085 30.1488 45.1546 32.4949 45.1546 35.3895C45.1546 37.9488 43.4179 40.0512 41.0871 40.5844V42.7172C41.0871 43.875 40.1425 44.8195 38.9847 44.8195C37.8269 44.8195 36.8824 43.875 36.8824 42.7172V40.7063H34.78C33.6222 40.7063 32.6777 39.777 32.6777 38.6039C32.6777 37.4461 33.6222 36.5016 34.78 36.5016H39.8988C40.4929 36.5016 40.9499 36.0445 40.9499 35.4504C40.9499 34.7801 40.4929 34.323 39.8988 34.323H37.9335C35.039 34.323 32.6929 31.977 32.6929 29.0824C32.6929 26.5383 34.4906 24.4207 36.8824 23.9484V21.7395C36.8824 20.5816 37.8269 19.6371 38.9847 19.6371C40.1425 19.6371 41.0871 20.5816 41.0871 21.7395V23.8418H43.0523C44.2101 23.8418 45.1546 24.7863 45.1546 25.9441C45.1546 27.102 44.2101 28.0465 43.0523 28.0465H37.9335C37.3394 28.0465 36.8824 28.5035 36.8824 29.0977C36.8824 29.6918 37.3699 30.1488 37.9488 30.1488Z" fill="white"/>
</g>
<defs>
<clipPath id="clip0_146_189">
<rect width="78" height="78" fill="white"/>
</clipPath>
</defs>
</svg>
