<svg width="63" height="62" viewBox="0 0 63 62" fill="none" xmlns="http://www.w3.org/2000/svg">
<g clip-path="url(#clip0_151_271)">
<path d="M58.8109 31.8033C58.5574 31.2928 58.5574 30.7075 58.8109 30.1972L61.1606 25.4667C62.4688 22.8328 61.4323 19.6935 58.8008 18.3194L54.0746 15.8515C53.5647 15.5854 53.2151 15.1117 53.1153 14.5523L52.191 9.36605C51.6763 6.47846 48.9621 4.53807 46.0131 4.94869L40.7156 5.68615C40.1438 5.76559 39.5784 5.58467 39.1636 5.18979L35.3183 1.52891C33.1772 -0.509575 29.8229 -0.509696 27.6819 1.52891L23.8365 5.19015C23.4216 5.58516 22.8562 5.76571 22.2845 5.68651L16.987 4.94906C14.037 4.53819 11.3238 6.47883 10.8091 9.36641L9.88478 14.5525C9.78499 15.1119 9.43542 15.5855 8.92564 15.8518L4.19944 18.3197C1.56797 19.6936 0.53143 22.8332 1.83966 25.4671L4.18922 30.1974C4.4427 30.7078 4.4427 31.2932 4.18922 31.8035L1.83953 36.5339C0.531307 39.1678 1.56785 42.3071 4.19931 43.6811L8.92552 46.149C9.43542 46.4152 9.78499 46.8889 9.88478 47.4482L10.8091 52.6345C11.2777 55.2632 13.568 57.1067 16.2004 57.1065C16.4596 57.1065 16.7227 57.0886 16.9871 57.0518L22.2846 56.3143C22.8559 56.2345 23.4217 56.4158 23.8366 56.8107L27.6819 60.4715C28.7527 61.4909 30.1261 62.0005 31.5001 62.0004C32.8736 62.0002 34.2479 61.4907 35.3182 60.4715L39.1636 56.8107C39.5785 56.4158 40.144 56.2354 40.7156 56.3143L46.0131 57.0518C48.9635 57.4625 51.6763 55.522 52.191 52.6344L53.1154 47.4484C53.2152 46.8889 53.5648 46.4153 54.0746 46.149L58.8008 43.6811C61.4323 42.3072 62.4688 39.1676 61.1606 36.5338L58.8109 31.8033ZM24.2328 14.9087C27.906 14.9087 30.8944 17.8497 30.8944 21.4646C30.8944 25.0794 27.906 28.0204 24.2328 28.0204C20.5597 28.0204 17.5712 25.0794 17.5712 21.4646C17.5712 17.8497 20.5597 14.9087 24.2328 14.9087ZM20.7944 44.0643C20.4397 44.4134 19.9747 44.588 19.5098 44.588C19.045 44.588 18.5798 44.4135 18.2252 44.0643C17.5157 43.3661 17.5157 42.234 18.2252 41.5357L42.2056 17.936C42.9149 17.2378 44.0654 17.2378 44.7749 17.936C45.4844 18.6343 45.4844 19.7664 44.7749 20.4646L20.7944 44.0643ZM38.767 47.0919C35.0939 47.0919 32.1054 44.1509 32.1054 40.536C32.1054 36.9211 35.0939 33.9801 38.767 33.9801C42.4402 33.9801 45.4286 36.9211 45.4286 40.536C45.4286 44.1509 42.4402 47.0919 38.767 47.0919Z" fill="white"/>
<path d="M38.7671 37.5562C37.0974 37.5562 35.739 38.8929 35.739 40.536C35.739 42.1791 37.0973 43.5159 38.7671 43.5159C40.4367 43.5159 41.795 42.1791 41.795 40.536C41.795 38.8929 40.4367 37.5562 38.7671 37.5562Z" fill="white"/>
<path d="M24.2328 18.4844C22.5632 18.4844 21.2049 19.8211 21.2049 21.4642C21.2049 23.1073 22.5632 24.4442 24.2328 24.4442C25.9024 24.4442 27.2609 23.1075 27.2609 21.4642C27.2608 19.8212 25.9024 18.4844 24.2328 18.4844Z" fill="white"/>
</g>
<defs>
<clipPath id="clip0_151_271">
<rect width="63" height="62" fill="white"/>
</clipPath>
</defs>
</svg>
