<svg width="246" height="44" viewBox="0 0 246 44" fill="none" xmlns="http://www.w3.org/2000/svg">
<path d="M173.927 31.7955C173.254 32.478 172.161 32.4825 171.485 31.8022C171.159 31.4722 170.974 31.0254 170.977 30.5584C170.963 29.611 171.71 28.8319 172.648 28.8185C172.665 28.8185 172.685 28.8185 172.703 28.8185C173.659 28.8297 174.425 29.62 174.414 30.5854C174.41 31.0321 174.234 31.4587 173.927 31.7798" fill="#5F5F61"/>
<path d="M39.0105 0H6.6373C2.97162 0 0 3.00247 0 6.70619V37.2938C0 40.9975 2.97162 44 6.6373 44H39.0105C42.6762 44 45.6478 40.9975 45.6478 37.2938V6.70619C45.6478 3.00247 42.6762 0 39.0105 0Z" fill="url(#paint0_linear_146_704)"/>
<path d="M7.93721 11.6006C6.50843 12.4919 5.39962 13.8232 4.77299 15.3971L9.20823 18.0261C9.94151 16.3378 11.0725 15.4936 12.5991 15.4959C13.859 15.3903 14.9678 16.3378 15.07 17.613C15.0789 17.7275 15.0811 17.8443 15.0723 17.9588C15.0723 19.0881 14.2923 20.4621 12.7346 22.0853L5.00409 30.2082V34.0743H20.6852V28.9442H12.9324L16.7677 25.0444C19.1542 22.6219 20.3519 20.1837 20.3563 17.7253C20.3563 15.4644 19.5941 13.6594 18.0698 12.3145C16.541 10.9742 14.5723 10.2557 12.5502 10.3029C10.9237 10.2894 9.326 10.7384 7.93943 11.5983" fill="white"/>
<path d="M29.5179 10.7676L22.1717 25.4148V30.3407H31.8133V25.4148H27.8358L35.1841 10.7676H29.5179Z" fill="white"/>
<path d="M40.2904 25.4148H38.7905V30.3407H40.2904V25.4148Z" fill="white"/>
<path d="M35.8507 18.4033H34.8219V20.4217H32.6821V25.4148V30.3406V34.0698H34.8219V36.0882H35.8507V34.0698H37.9928V20.4217H35.8507V18.4033Z" fill="white"/>
<path d="M69.2328 13.3563C71.2415 13.3563 72.8592 14.0141 74.088 15.3252C75.3168 16.6386 75.9301 18.4056 75.9301 20.6237V31.7236H72.1037V20.8752C72.1037 19.6336 71.797 18.6727 71.1815 17.9924C70.566 17.3122 69.7283 16.9709 68.6662 16.9709C67.484 16.9709 66.5463 17.3638 65.8486 18.1519C65.1509 18.9399 64.8042 20.1208 64.8042 21.6969V31.7214H60.9778V20.8729C60.9778 19.6314 60.689 18.6705 60.109 17.9902C59.529 17.3099 58.7091 16.9687 57.647 16.9687C56.4893 16.9687 55.5449 17.3683 54.8116 18.1676C54.0783 18.9668 53.7139 20.1433 53.7139 21.6947V31.7192H49.8875V13.8232H53.7139V15.9718C54.8472 14.2296 56.5359 13.3585 58.7802 13.3585C61.0245 13.3585 62.7244 14.3015 63.8132 16.1874C64.9953 14.3015 66.8018 13.3585 69.235 13.3585L69.2328 13.3563Z" fill="white"/>
<path d="M92.6578 13.8232H96.4841V31.7259H92.6578V29.1485C91.2156 31.1781 89.1491 32.1929 86.456 32.1929C84.0228 32.1929 81.943 31.2791 80.2187 29.4538C78.4943 27.6285 77.6322 25.4014 77.6322 22.7768C77.6322 20.1523 78.4943 17.8959 80.2187 16.0818C81.943 14.2678 84.0228 13.3607 86.456 13.3607C89.1491 13.3607 91.2156 14.3643 92.6578 16.3692V13.8277V13.8232ZM83.054 26.8742C84.1184 27.9608 85.4516 28.5041 87.0582 28.5041C88.6647 28.5041 90.0002 27.9608 91.0623 26.8742C92.1245 25.7875 92.6578 24.4225 92.6578 22.7746C92.6578 21.1266 92.1267 19.7616 91.0623 18.675C90.0002 17.5883 88.6647 17.045 87.0582 17.045C85.4516 17.045 84.1161 17.5883 83.054 18.675C81.9919 19.7616 81.4586 21.1266 81.4586 22.7746C81.4586 24.4225 81.9896 25.7875 83.054 26.8742Z" fill="white"/>
<path d="M103.359 16.8295C104.328 14.609 106.146 13.5 108.817 13.5V17.6894C107.352 17.5951 106.077 17.9453 104.99 18.7446C103.904 19.5438 103.359 20.864 103.359 22.7005V31.7236H99.5328V13.8233H103.359V16.8317V16.8295Z" fill="white"/>
<path d="M125.895 31.7259H121.325L114.061 23.4638V31.7259H110.234V6.66129H114.061V21.7732L120.936 13.8232H125.613L117.816 22.595L125.895 31.7259Z" fill="white"/>
<path d="M128.66 24.4202C128.944 25.7808 129.593 26.8248 130.608 27.5544C131.624 28.2819 132.864 28.6456 134.33 28.6456C136.361 28.6456 137.886 27.9069 138.901 26.4251L142.054 28.2864C140.305 30.8885 137.719 32.1884 134.293 32.1884C131.41 32.1884 129.084 31.2993 127.311 29.5212C125.54 27.743 124.653 25.4934 124.653 22.7723C124.653 20.0512 125.526 17.8622 127.275 16.0594C129.024 14.2566 131.268 13.3563 134.008 13.3563C136.606 13.3563 138.739 14.2745 140.405 16.1133C142.072 17.952 142.903 20.1837 142.903 22.8082C142.903 23.2146 142.856 23.7512 142.761 24.4202H128.657H128.66ZM128.624 21.2703H139.043C138.783 19.8155 138.188 18.7154 137.255 17.9767C136.321 17.2381 135.228 16.8676 133.977 16.8676C132.559 16.8676 131.377 17.2605 130.433 18.0486C129.488 18.8366 128.886 19.9098 128.626 21.2703H128.624Z" fill="white"/>
<path d="M154.176 17.5457H149.78V26.1378C149.78 26.8787 149.945 27.4085 150.276 27.7318C150.607 28.0551 151.096 28.2325 151.747 28.2684C152.396 28.3043 153.204 28.2976 154.173 28.2504V31.7236C151.245 32.0806 149.14 31.8247 147.865 30.9536C146.589 30.0825 145.952 28.4772 145.952 26.1378V17.5457H142.692V13.821H145.952V9.9549L149.778 8.80988V13.8233H154.173V17.5479L154.176 17.5457Z" fill="white"/>
<path d="M159.031 18.7401C159.031 19.3305 159.357 19.7953 160.013 20.1365C160.668 20.4778 161.453 20.7921 162.37 21.0773C163.286 21.3624 164.226 21.6542 165.188 21.9551C166.15 22.2537 166.952 22.8082 167.597 23.6165C168.241 24.4247 168.563 25.4463 168.563 26.6766C168.563 28.3941 167.908 29.7434 166.597 30.7223C165.286 31.7012 163.637 32.1906 161.653 32.1906C159.904 32.1906 158.404 31.8202 157.153 31.0815C155.9 30.3429 154.991 29.3146 154.424 28.0035L157.72 26.0704C158.333 27.7879 159.644 28.6478 161.653 28.6478C163.662 28.6478 164.666 27.9788 164.666 26.6429C164.666 26.0704 164.341 25.6057 163.69 25.2465C163.039 24.8895 162.257 24.5662 161.342 24.281C160.426 23.9959 159.486 23.7041 158.524 23.4032C157.562 23.1046 156.758 22.568 156.107 21.7912C155.458 21.0166 155.131 20.031 155.131 18.8366C155.131 17.1887 155.751 15.8641 156.991 14.8627C158.231 13.8614 159.773 13.3585 161.615 13.3585C163.079 13.3585 164.384 13.6863 165.53 14.3441C166.677 15.0019 167.557 15.9135 168.17 17.0832L164.946 18.9085C164.33 17.5479 163.222 16.8676 161.615 16.8676C160.882 16.8676 160.268 17.027 159.773 17.3459C159.277 17.6647 159.029 18.1294 159.029 18.7423L159.031 18.7401Z" fill="white"/>
<path d="M185.755 32.2064C182.871 32.2064 180.474 31.2388 178.56 29.3057C176.647 27.3726 175.69 24.9748 175.69 22.1123C175.69 19.2498 176.647 16.852 178.56 14.9189C180.474 12.9859 182.873 12.0182 185.755 12.0182C187.618 12.0182 189.302 12.4628 190.808 13.3518C192.313 14.2409 193.41 15.4465 194.099 16.9687L192.531 17.896C191.968 16.6589 191.082 15.68 189.871 14.9571C188.657 14.2364 187.286 13.8749 185.755 13.8749C183.46 13.8749 181.531 14.6675 179.976 16.2525C178.418 17.8376 177.64 19.7908 177.64 22.1123C177.64 24.4338 178.418 26.3848 179.976 27.9721C181.531 29.5572 183.458 30.3497 185.755 30.3497C187.286 30.3497 188.657 29.9882 189.871 29.2675C191.082 28.5468 192.008 27.5657 192.646 26.3287L194.253 27.2963C193.488 28.7916 192.346 29.9837 190.826 30.8728C189.309 31.7619 187.618 32.2064 185.755 32.2064Z" fill="#5F5F61"/>
<path d="M205.505 32.2064C202.699 32.2064 200.319 31.2342 198.368 29.2877C196.415 27.3412 195.439 24.9501 195.439 22.1145C195.439 19.2789 196.415 16.8879 198.368 14.9413C200.321 12.9948 202.699 12.0227 205.505 12.0227C208.312 12.0227 210.654 12.997 212.605 14.9413C214.558 16.8879 215.533 19.2789 215.533 22.1145C215.533 24.9501 214.558 27.3412 212.605 29.2877C210.654 31.2342 208.285 32.2064 205.505 32.2064ZM199.746 27.9518C201.314 29.5504 203.234 30.3496 205.505 30.3496C207.776 30.3496 209.689 29.5504 211.247 27.9518C212.802 26.3533 213.582 24.4068 213.582 22.1123C213.582 19.8177 212.805 17.8712 211.247 16.2727C209.689 14.6742 207.776 13.8749 205.505 13.8749C203.234 13.8749 201.314 14.6742 199.746 16.2727C198.177 17.8712 197.392 19.8177 197.392 22.1123C197.392 24.4068 198.177 26.3533 199.746 27.9518Z" fill="#5F5F61"/>
<path d="M239.034 12.0204C241.127 12.0204 242.809 12.6782 244.087 13.9939C245.362 15.3095 246 17.1528 246 19.5236V31.782H244.087V19.5236C244.087 17.7185 243.62 16.3266 242.689 15.3477C241.758 14.3688 240.527 13.8771 238.996 13.8771C237.287 13.8771 235.901 14.4698 234.843 15.6553C233.783 16.8407 233.254 18.6211 233.254 20.9919V31.782H231.341V19.5236C231.341 17.7185 230.901 16.3266 230.021 15.3477C229.141 14.3688 227.948 13.8771 226.441 13.8771C224.757 13.8771 223.346 14.4766 222.213 15.6755C221.077 16.8744 220.508 18.648 220.508 20.9919V31.782H218.595V12.4447H220.508V15.7698C221.835 13.2687 223.888 12.0182 226.67 12.0182C228.072 12.0182 229.299 12.3594 230.346 13.0419C231.392 13.7245 232.157 14.6988 232.641 15.9606C233.303 14.645 234.203 13.6594 235.339 13.0015C236.474 12.3437 237.705 12.0159 239.032 12.0159L239.034 12.0204Z" fill="#5F5F61"/>
<defs>
<linearGradient id="paint0_linear_146_704" x1="41.6392" y1="43.8698" x2="3.56528" y2="0.519573" gradientUnits="userSpaceOnUse">
<stop offset="0.59" stop-color="#190787"/>
<stop offset="0.79" stop-color="#14056D"/>
<stop offset="1" stop-color="#090333"/>
</linearGradient>
</defs>
</svg>
