<svg width="30" height="24" viewBox="0 0 30 24" fill="none" xmlns="http://www.w3.org/2000/svg">
<path fill-rule="evenodd" clip-rule="evenodd" d="M2.92768 2.14775L11.5727 10.7965C13.4582 12.6784 16.5403 12.68 18.4274 10.7965L27.0724 2.14775C27.1594 2.06068 27.1467 1.91731 27.0457 1.84687C26.164 1.23193 25.0912 0.867371 23.9356 0.867371H6.06456C4.90887 0.867371 3.83606 1.232 2.95431 1.84687C2.85331 1.91731 2.84062 2.06068 2.92768 2.14775ZM0.617432 6.31443C0.617432 5.40568 0.842744 4.54706 1.23962 3.79237C1.30168 3.67431 1.45899 3.65043 1.55331 3.74475L10.0889 12.2803C12.7918 14.9872 17.2067 14.9887 19.9112 12.2803L28.4468 3.74475C28.5411 3.65043 28.6984 3.67431 28.7605 3.79237C29.1573 4.54706 29.3827 5.40575 29.3827 6.31443V17.6855C29.3827 20.6913 26.9376 23.1326 23.9356 23.1326H6.06456C3.06256 23.1326 0.617432 20.6913 0.617432 17.6855V6.31443Z" fill="black"/>
</svg>
