<svg width="18" height="18" viewBox="0 0 18 18" fill="none" xmlns="http://www.w3.org/2000/svg">
<path d="M13.2188 5.84375C14.3924 5.84375 15.3438 4.89236 15.3438 3.71875C15.3438 2.54514 14.3924 1.59375 13.2188 1.59375C12.0451 1.59375 11.0938 2.54514 11.0938 3.71875C11.0938 4.89236 12.0451 5.84375 13.2188 5.84375Z" fill="#190787"/>
<path d="M6.3125 6.90625C6.31212 6.72808 6.32812 6.55024 6.36031 6.375H4.71875C4.01427 6.375 3.33864 6.65485 2.8405 7.153C2.34235 7.65114 2.0625 8.32677 2.0625 9.03125V11.6875C2.0625 11.8284 2.11847 11.9635 2.2181 12.0632C2.31773 12.1628 2.45285 12.2188 2.59375 12.2188H4.71875C4.71933 11.4957 4.9307 10.7884 5.32699 10.1836C5.72327 9.57883 6.28729 9.10267 6.95 8.81344C6.53728 8.26315 6.31365 7.59411 6.3125 6.90625Z" fill="#190787"/>
<path d="M14.2813 6.375H12.6397C12.6719 6.55024 12.6879 6.72808 12.6875 6.90625C12.6864 7.59411 12.4628 8.26315 12.05 8.81344C12.7128 9.10267 13.2768 9.57883 13.6731 10.1836C14.0694 10.7884 14.2807 11.4957 14.2813 12.2188H16.4063C16.5472 12.2188 16.6823 12.1628 16.782 12.0632C16.8816 11.9635 16.9375 11.8284 16.9375 11.6875V9.03125C16.9375 8.32677 16.6577 7.65114 16.1596 7.153C15.6614 6.65485 14.9858 6.375 14.2813 6.375Z" fill="#190787"/>
<path d="M5.78125 5.84375C6.95486 5.84375 7.90625 4.89236 7.90625 3.71875C7.90625 2.54514 6.95486 1.59375 5.78125 1.59375C4.60764 1.59375 3.65625 2.54514 3.65625 3.71875C3.65625 4.89236 4.60764 5.84375 5.78125 5.84375Z" fill="#190787"/>
<path d="M9.5 9.03125C10.6736 9.03125 11.625 8.07986 11.625 6.90625C11.625 5.73264 10.6736 4.78125 9.5 4.78125C8.32639 4.78125 7.375 5.73264 7.375 6.90625C7.375 8.07986 8.32639 9.03125 9.5 9.03125Z" fill="#190787"/>
<path d="M10.5625 9.5625H8.4375C7.73302 9.5625 7.05739 9.84235 6.55925 10.3405C6.0611 10.8386 5.78125 11.5143 5.78125 12.2188V14.875C5.78125 15.0159 5.83722 15.151 5.93685 15.2507C6.03648 15.3503 6.1716 15.4062 6.3125 15.4062H12.6875C12.8284 15.4062 12.9635 15.3503 13.0632 15.2507C13.1628 15.151 13.2188 15.0159 13.2188 14.875V12.2188C13.2188 11.8699 13.15 11.5245 13.0166 11.2022C12.8831 10.88 12.6874 10.5872 12.4408 10.3405C12.1941 10.0938 11.9013 9.89818 11.579 9.76469C11.2567 9.63121 10.9113 9.5625 10.5625 9.5625Z" fill="#190787"/>
</svg>
