<svg width="17" height="17" viewBox="0 0 17 17" fill="none" xmlns="http://www.w3.org/2000/svg">
<g clip-path="url(#clip0_194_366)">
<path d="M8.5 0.5C12.9109 0.5 16.5 4.08905 16.5 8.5C16.5 12.9109 12.9109 16.5 8.5 16.5C4.08905 16.5 0.5 12.9109 0.5 8.5C0.5 4.08905 4.08905 0.5 8.5 0.5Z" stroke="#E50000"/>
<path d="M11.6302 10.6285C11.9071 10.9055 11.9071 11.3531 11.6302 11.6301C11.4921 11.7683 11.3107 11.8377 11.1293 11.8377C10.948 11.8377 10.7667 11.7683 10.6285 11.6301L8.50002 9.50151L6.37152 11.6301C6.23339 11.7683 6.05207 11.8377 5.87075 11.8377C5.6893 11.8377 5.50798 11.7683 5.36985 11.6301C5.09294 11.3531 5.09294 10.9055 5.36985 10.6285L7.49848 8.49996L5.36985 6.37146C5.09294 6.09442 5.09294 5.64683 5.36985 5.36979C5.64689 5.09288 6.09448 5.09288 6.37152 5.36979L8.50002 7.49842L10.6285 5.36979C10.9056 5.09288 11.3532 5.09288 11.6302 5.36979C11.9071 5.64683 11.9071 6.09442 11.6302 6.37146L9.50157 8.49996L11.6302 10.6285Z" fill="#E50000"/>
</g>
<defs>
<clipPath id="clip0_194_366">
<rect width="17" height="17" fill="white"/>
</clipPath>
</defs>
</svg>
