<svg width="63" height="63" viewBox="0 0 63 63" fill="none" xmlns="http://www.w3.org/2000/svg">
<path d="M5.61129 22.2773C5.61129 21.258 4.78491 20.4316 3.76559 20.4316H1.8457C0.82638 20.4316 0 21.258 0 22.2773C0 23.2967 0.82638 24.123 1.8457 24.123H3.76559C4.78491 24.123 5.61129 23.2967 5.61129 22.2773Z" fill="white"/>
<path d="M6.57313 7.46166C8.23426 7.46166 9.06187 5.41282 7.83227 4.26615L6.42818 2.95669C5.68265 2.2616 4.51469 2.30245 3.8196 3.04774C3.12439 3.79328 3.16524 4.96111 3.91066 5.65632C5.04514 6.58237 5.44689 7.46166 6.57313 7.46166Z" fill="white"/>
<path d="M5.31475 37.3308L3.91067 38.6401C3.16513 39.3353 3.1244 40.5033 3.81949 41.2487C4.51495 41.9944 5.68266 42.035 6.4282 41.3399L7.83228 40.0305C8.57782 39.3353 8.61855 38.1674 7.92346 37.422C7.22812 36.6764 6.06029 36.6356 5.31475 37.3308Z" fill="white"/>
<path d="M61.1541 20.1733H59.2342C58.2149 20.1733 57.3885 20.9997 57.3885 22.019C57.3885 23.0384 58.2149 23.8647 59.2342 23.8647H61.1541C62.1734 23.8647 62.9998 23.0384 62.9998 22.019C62.9998 20.9997 62.1734 20.1733 61.1541 20.1733Z" fill="white"/>
<path d="M57.685 37.3311C56.9395 36.6362 55.7716 36.6769 55.0763 37.4223C54.3812 38.1679 54.422 39.3357 55.1675 40.0309L56.5716 41.3402C57.3187 42.0368 58.4864 41.993 59.1803 41.2491C59.8754 40.5035 59.8346 39.3357 59.0891 38.6405L57.685 37.3311Z" fill="white"/>
<path d="M57.685 6.9658L59.0891 5.65646C59.8346 4.96125 59.8754 3.7933 59.1801 3.04788C58.4849 2.30246 57.317 2.26149 56.5716 2.95683L55.1675 4.26616C54.4219 4.96137 54.3812 6.12933 55.0764 6.87475C55.7718 7.62029 56.9397 7.66089 57.685 6.9658Z" fill="white"/>
<path d="M21.0409 50.0185C21.0409 52.3143 22.4467 54.2875 24.4424 55.125H38.5573C40.553 54.2875 41.9588 52.3143 41.9588 50.0185V47.373H21.0409V50.0185Z" fill="white"/>
<path d="M24.7323 61.1543C24.7323 62.1731 25.5592 63 26.578 63H36.4217C37.4406 63 38.2674 62.1731 38.2674 61.1543V58.8164H24.7323V61.1543Z" fill="white"/>
<path d="M52.8543 22.1483C58.1061 16.7873 55.0716 7.74539 47.7224 6.57485C45.8775 0.440858 38.4644 -2.00087 33.3456 1.85023V44.3582H38.8827C43.0489 44.3582 46.6037 41.6218 47.7408 37.7189C55.05 36.54 58.1159 27.5194 52.8543 22.1483ZM37.037 11.1972C37.037 10.1779 37.8634 9.35151 38.8827 9.35151C39.902 9.35151 40.7284 10.1779 40.7284 11.1972C40.7284 13.0873 41.4449 13.4336 42.8722 14.1233C44.2235 14.7761 46.2655 15.7627 46.2655 18.58C46.2655 19.5993 45.4391 20.4257 44.4198 20.4257C43.4004 20.4257 42.5741 19.5993 42.5741 18.58C42.5741 18.175 42.5741 18.0788 41.2663 17.447C39.6846 16.6827 37.037 15.4035 37.037 11.1972ZM47.9845 28.6102C45.8596 31.5547 42.5771 32.7766 41.6425 32.7766C40.8394 32.7766 40.1006 32.2485 39.8688 31.438C39.5885 30.4579 40.1558 29.4363 41.1359 29.156C42.6617 28.7196 44.0408 27.767 44.9912 26.45C45.5877 25.6234 46.7414 25.437 47.5679 26.0334C48.3945 26.6301 48.5811 27.7836 47.9845 28.6102Z" fill="white"/>
<path d="M29.6542 44.3582V1.85023C24.5356 -2.00075 17.1224 0.440611 15.2774 6.57484C7.92407 7.74612 4.89602 16.7897 10.1455 22.1483C4.88211 27.5212 7.95335 36.5405 15.2591 37.7189C16.3999 41.6346 19.9621 44.3582 24.1172 44.3582H29.6542ZM20.1276 14.1233C21.5549 13.4336 22.2714 13.0874 22.2714 11.1972C22.2714 10.1779 23.0978 9.35151 24.1171 9.35151C25.1364 9.35151 25.9628 10.1779 25.9628 11.1972C25.9628 15.4035 23.3152 16.6827 21.7334 17.447C20.4257 18.0788 20.4257 18.175 20.4257 18.58C20.4257 19.5993 19.5993 20.4257 18.58 20.4257C17.5607 20.4257 16.7343 19.5993 16.7343 18.58C16.7343 15.7627 18.7763 14.7761 20.1276 14.1233ZM23.131 31.438C22.8993 32.2484 22.1604 32.7766 21.3573 32.7766C20.3943 32.7766 17.3263 31.5643 15.2831 28.9657C14.653 28.1643 14.7919 27.004 15.5932 26.374C16.3947 25.7439 17.5549 25.8828 18.1849 26.6841C19.1042 27.8533 20.3993 28.7371 21.8639 29.1558C22.8441 29.4363 23.4113 30.4579 23.131 31.438Z" fill="white"/>
</svg>
