<svg width="57" height="57" viewBox="0 0 57 57" fill="none" xmlns="http://www.w3.org/2000/svg">
<path fill-rule="evenodd" clip-rule="evenodd" d="M21.338 35.7732C21.338 31.8285 18.1286 28.6187 14.1834 28.6187C10.2383 28.6187 7.02844 31.8285 7.02844 35.7732C7.02844 39.7184 10.2383 42.9282 14.1834 42.9282C18.1286 42.9282 21.338 39.7184 21.338 35.7732Z" fill="white"/>
<path fill-rule="evenodd" clip-rule="evenodd" d="M14.183 42.9282C7.33374 42.9282 1.78125 48.4807 1.78125 55.33C1.78125 56.2524 2.5288 56.9999 3.45117 56.9999H24.9153C25.8377 56.9999 26.5852 56.2524 26.5852 55.33C26.5852 48.4807 21.0328 42.9282 14.183 42.9282Z" fill="white"/>
<path fill-rule="evenodd" clip-rule="evenodd" d="M42.8022 28.6187C38.857 28.6187 35.6472 31.8285 35.6472 35.7732C35.6472 39.7184 38.857 42.9282 42.8022 42.9282C46.7474 42.9282 49.9568 39.7184 49.9568 35.7732C49.9568 31.8285 46.7474 28.6187 42.8022 28.6187Z" fill="white"/>
<path fill-rule="evenodd" clip-rule="evenodd" d="M42.8022 42.9282C35.9529 42.9282 30.4 48.4807 30.4 55.33C30.4 56.2524 31.148 56.9999 32.0699 56.9999H53.5341C54.4565 56.9999 55.204 56.2524 55.204 55.33C55.204 48.4807 49.6515 42.9282 42.8022 42.9282Z" fill="white"/>
<path fill-rule="evenodd" clip-rule="evenodd" d="M42.8022 24.804C45.6954 24.804 48.0494 22.45 48.0494 19.5568V5.24721C48.0494 2.32354 45.6771 0 42.8022 0H14.1834C11.2576 0 8.93579 2.37399 8.93579 5.24721V19.5568C8.93579 22.45 11.2898 24.804 14.1834 24.804H22.5578L26.9992 33.6863C27.2819 34.2521 27.8603 34.6096 28.4926 34.6096C29.1253 34.6096 29.7033 34.2521 29.9864 33.6863L34.4273 24.804H42.8022ZM32.0699 7.15457C32.9918 7.15457 33.7398 7.90299 33.7398 8.82449C33.7398 9.74643 32.9918 10.4944 32.0699 10.4944C31.1484 10.4944 30.3999 9.74643 30.3999 8.82449C30.3999 7.90299 31.1484 7.15457 32.0699 7.15457ZM24.9153 7.15457C25.8372 7.15457 26.5852 7.90299 26.5852 8.82449C26.5852 9.74643 25.8372 10.4944 24.9153 10.4944C23.9934 10.4944 23.2454 9.74643 23.2454 8.82449C23.2454 7.90299 23.9934 7.15457 24.9153 7.15457ZM28.4926 18.5435C25.869 18.5435 23.3632 17.2906 21.7903 15.1924C21.2371 14.4544 21.3871 13.4076 22.1251 12.8545C22.8631 12.3013 23.9099 12.4509 24.4626 13.1889C25.4084 14.4505 26.9148 15.2037 28.4926 15.2037C30.0703 15.2037 31.5767 14.4505 32.5226 13.1889C33.0757 12.4509 34.1225 12.3009 34.8605 12.8545C35.5984 13.4076 35.748 14.4544 35.1949 15.1924C33.6219 17.2906 31.1162 18.5435 28.4926 18.5435Z" fill="white"/>
</svg>
