<svg width="51" height="51" viewBox="0 0 51 51" fill="none" xmlns="http://www.w3.org/2000/svg">
<path d="M35.9196 25.1568C35.7999 24.652 35.4293 24.2463 34.9376 24.0829L27.607 21.6389L32.8132 11.2266C33.14 10.5715 32.9444 9.77482 32.3506 9.3458C31.7538 8.91828 30.9367 8.98253 30.4201 9.50189L15.4787 24.4433C15.1125 24.8096 14.9622 25.3392 15.0804 25.8426C15.2 26.3474 15.5707 26.7531 16.0623 26.9165L23.393 29.3605L18.1868 39.7728C17.86 40.4279 18.0555 41.2246 18.6494 41.6536C19.2442 42.0798 20.0597 42.0175 20.5798 41.4975L35.5212 26.5561C35.8875 26.1898 36.0378 25.6602 35.9196 25.1568Z" fill="white"/>
<path d="M25.5 0C17.9167 0 10.7539 3.52677 5.97656 9.21676V7.57031C5.97656 6.74445 5.30828 6.07617 4.48242 6.07617C3.65656 6.07617 2.98828 6.74445 2.98828 7.57031V13.9175C2.98828 15.3434 4.83006 15.5475 4.48242 15.4117C4.5131 15.4117 4.54368 15.4102 4.57436 15.4088L10.5509 15.0381C11.3753 14.987 12.0013 14.2779 11.9502 13.4549C11.8991 12.632 11.1799 12.0119 10.367 12.0556L7.33952 12.2439C11.5331 6.53945 18.3182 2.98828 25.5 2.98828C37.8587 2.98828 48.0117 13.1413 48.0117 25.5C48.0117 26.3259 48.68 26.9941 49.5059 26.9941C50.3317 26.9941 51 26.3259 51 25.5C51 11.4939 39.5061 0 25.5 0Z" fill="white"/>
<path d="M46.4256 35.5912L40.4491 35.9619C39.6247 36.013 38.9987 36.7221 39.0498 37.5451C39.1009 38.368 39.8363 38.9955 40.633 38.9444L43.6605 38.7561C39.4669 44.4605 32.6818 48.0117 25.5 48.0117C13.1413 48.0117 2.98828 37.8587 2.98828 25.5C2.98828 24.6741 2.32 24.0059 1.49414 24.0059C0.668279 24.0059 0 24.6741 0 25.5C0 39.5061 11.4939 51 25.5 51C33.0833 51 40.2461 47.4732 45.0234 41.7832V43.4297C45.0234 44.2555 45.6917 44.9238 46.5176 44.9238C47.3434 44.9238 48.0117 44.2555 48.0117 43.4297V37.0825C48.0117 36.2617 47.2247 35.5462 46.4256 35.5912Z" fill="white"/>
</svg>
