<?xml version="1.0" encoding="UTF-8"?>
<svg id="Layer_2" data-name="Layer 2" xmlns="http://www.w3.org/2000/svg" viewBox="0 0 222 228">
  <defs>
    <style>
      .cls-1 {
        fill: #fefefe;
      }

      .cls-1, .cls-2, .cls-3, .cls-4 {
        stroke-width: 0px;
      }

      .cls-2 {
        fill: #78debf;
      }

      .cls-3 {
        fill: #dbdbe6;
      }

      .cls-4 {
        fill: #00b974;
      }
    </style>
  </defs>
  <g id="Layer_1-2" data-name="Layer 1">
    <g>
      <path class="cls-3" d="m110.01.08C146.15.08,182.29.13,218.42,0c2.98-.01,3.58.6,3.58,3.58-.1,73.61-.1,147.22,0,220.84,0,2.98-.6,3.59-3.58,3.58-36.13-.13-72.27-.08-108.41-.08-2.26-2.3-1.8-5.25-1.8-8.03-.04-18.81,0-37.62-.05-56.43,0-1.6.71-3.74-.85-4.65-1.64-.96-3.02.88-4.3,1.79-6.9,4.95-14.04,9.54-20.67,14.87-2.19,1.76-4.54,3.46-7.65,3.06-2.05-2.05-.16-3.31,1.12-4.3,9.6-7.46,19.6-14.37,29.63-21.23,3.65-2.49,6.88-1.08,10.07,1.26,11.95,8.76,23.68,17.82,35.79,26.36,1.34.95,2.53,2.18,4.78,2.76-.48-3.45-1.47-6.51-2.6-9.49-2.71-7.17-4.76-14.55-6.97-21.88-1.74-5.79-2.7-6.44-8.62-4.63-6.22,1.91-12.62,3.05-18.88,4.79-1.77.49-3.77,1.21-4.91-.88-1.13-2.06.48-3.51,1.85-4.66,3.19-2.67,6.7-4.94,10.08-7.36,18.93-13.58,37.81-27.24,56.87-40.64.52-.36,1.15-.68,1.16-1.75-6.42-.43-12.86-.15-19.29-.19-9.49-.06-18.98.03-28.47-.03-6.9-.05-8.53-1.05-10.49-7.58-4.03-13.4-8.81-26.54-13.07-39.86-.85-2.67-1.52-5.44-4.48-6.69-.45-.76-.64-1.59-.69-2.47.9-10.69.22-21.39.44-32.08.06-2.78-.24-5.66,1.99-7.9Z"/>
      <path class="cls-4" d="m74.23,178.14c8.72-4.71,16.12-11.34,24.34-16.77,2.75-1.81,5.38-3.81,8-5.81.8-.61,1.46-1.44,2.57-.93,1.13.52.95,1.61.94,2.6-.02,5.64-.05,11.28-.05,16.92,0,17.92,0,35.84-.01,53.76-35.26,0-70.53-.05-105.79.08-3.16.01-4.23-.28-4.23-3.95C.15,150.68.15,77.32,0,3.95,0,.29,1.07,0,4.23,0c35.26.13,70.53.08,105.79.08,0,11.15-.02,22.3.04,33.45.01,2.53-.25,4.98-1.13,7.35-1.16,8.12-4.51,15.61-6.78,23.41-.56,1.93-.56,3.89-.83,5.83-2.29,6.24-4.03,12.67-6.31,18.91-2.23,6.09-4.09,7.6-10.63,7.65-14.79.12-29.59.02-44.38.05-.97,0-2-.21-3.52.78,5.84,3.81,11.3,7.71,16.6,11.79,7.24,5.58,15.05,10.36,22.25,15.97,5.73,4.46,5.79,5.89,3.52,12.88-4.81,14.83-9.83,29.59-14.45,44.81,3.77-1.2,5.86-4.94,9.83-4.83Z"/>
      <path class="cls-1" d="m74.23,178.14c-2.63,3.33-6.7,4.82-9.74,7.63-.72.67-1.55,1.58-2.55.73-.97-.83-.1-1.89.18-2.76,3.52-10.8,7.07-21.6,10.64-32.38,1.92-5.8,3.95-11.57,5.85-17.38.88-2.68.09-4.42-2.47-6.2-14.14-9.81-28.09-19.91-42.1-29.92-.76-.54-2.19-.82-1.75-2.03.61-1.64,2.28-.96,3.51-.96,16.31,0,32.63-.06,48.94.14,4.8.06,7.17-1.15,8.72-6.39,1.85-6.25,2.9-12.94,6.49-18.64,2.35-9.23,4.69-18.46,9.07-27,.68-1.05,1.36-2.1,2.13-3.29,4.09,11.8,8.13,23.29,12.03,34.83,1.69,5.01,3.25,10.08,4.52,15.21,1.03,4.17,3.35,5.38,7.53,5.33,15.8-.22,31.61-.09,47.41-.09,1.79,0,3.58,0,6.24,0-3.39,5.15-8.2,7.19-12.17,10.07-19.61,14.19-39.4,28.15-59.11,42.19-.54.38-1.1.77-1.54,1.25-.64.69-1.83,1.3-1.17,2.44.65,1.11,1.59.41,2.58.15,7.98-2.14,16.02-4.04,23.97-6.26,3.44-.96,4.95.38,5.79,3.46,3.26,11.95,7.14,23.7,11.41,35.32.35.96.59,2.15-.4,2.71-1.17.66-2.25-.29-3.16-.94-7.42-5.31-14.84-10.63-22.18-16.04-6.81-5.01-13.55-10.13-20.28-15.24-1.8-1.37-3.77-1.7-5.54-.44-10.79,7.66-21.5,15.42-32.21,23.18-.35.25-.42.87-.62,1.32Z"/>
      <path class="cls-2" d="m109.03,42.99c-3.02,9-6.05,18-9.07,27-.24-7.26,3.31-13.58,5.46-20.17.96-2.95.52-6.71,3.5-8.93.04.7.08,1.4.11,2.1Z"/>
    </g>
  </g>
</svg>